HIERARCHY
ROOT Hips
{
	OFFSET -0.001795 -0.223333 0.028219
	CHANNELS 6 Xposition Yposition Zposition Zrotation Yrotation Xrotation 
	JOINT LeftUpLeg
	{
		OFFSET 0.069520 -0.091406 -0.006815
		CHANNELS 3 Zrotation Yrotation Xrotation
		JOINT LeftLeg
		{
			OFFSET 0.034277 -0.375199 -0.004496
			CHANNELS 3 Zrotation Yrotation Xrotation
			JOINT LeftFoot
			{
				OFFSET -0.013596 -0.397961 -0.043693
				CHANNELS 3 Zrotation Yrotation Xrotation
				JOINT LeftToe
				{
					OFFSET 0.026358 -0.055791 0.119288
					CHANNELS 3 Zrotation Yrotation Xrotation
					End Site
					{
						OFFSET 0.000000 0.000000 0.000000
					}
				}
			}
		}
	}
	JOINT RightUpLeg
	{
		OFFSET -0.067670 -0.090522 -0.004320
		CHANNELS 3 Zrotation Yrotation Xrotation
		JOINT RightLeg
		{
			OFFSET -0.038290 -0.382569 -0.008850
			CHANNELS 3 Zrotation Yrotation Xrotation
			JOINT RightFoot
			{
				OFFSET 0.015774 -0.398415 -0.042312
				CHANNELS 3 Zrotation Yrotation Xrotation
				JOINT RightToe
				{
					OFFSET -0.025372 -0.048144 0.123348
					CHANNELS 3 Zrotation Yrotation Xrotation
					End Site
					{
						OFFSET 0.000000 0.000000 0.000000
					}
				}
			}
		}
	}
	JOINT Spine
	{
		OFFSET -0.002533 0.108963 -0.026696
		CHANNELS 3 Zrotation Yrotation Xrotation
		JOINT Spine1
		{
			OFFSET 0.005487 0.135180 0.001092
			CHANNELS 3 Zrotation Yrotation Xrotation
			JOINT Spine2
			{
				OFFSET 0.001457 0.052922 0.025425
				CHANNELS 3 Zrotation Yrotation Xrotation
				JOINT Neck
				{
					OFFSET -0.002778 0.213870 -0.042857
					CHANNELS 3 Zrotation Yrotation Xrotation
					JOINT Head
					{
						OFFSET 0.005152 0.064970 0.051349
						CHANNELS 3 Zrotation Yrotation Xrotation
						End Site
						{
							OFFSET 0.000000 0.000000 0.000000
						}
					}
				}
				JOINT LeftShoulder
				{
					OFFSET 0.078845 0.121749 -0.034090
					CHANNELS 3 Zrotation Yrotation Xrotation
					JOINT LeftArm
					{
						OFFSET 0.090977 0.030469 -0.008868
						CHANNELS 3 Zrotation Yrotation Xrotation
						JOINT LeftForeArm
						{
							OFFSET 0.259612 -0.012772 -0.027456
							CHANNELS 3 Zrotation Yrotation Xrotation
							JOINT LeftHand
							{
								OFFSET 0.249234 0.008986 -0.001171
								CHANNELS 3 Zrotation Yrotation Xrotation
								End Site
								{
									OFFSET 0.000000 0.000000 0.000000
								}
							}
						}
					}
				}
				JOINT RightShoulder
				{
					OFFSET -0.081759 0.118833 -0.038615
					CHANNELS 3 Zrotation Yrotation Xrotation
					JOINT RightArm
					{
						OFFSET -0.096012 0.032551 -0.009143
						CHANNELS 3 Zrotation Yrotation Xrotation
						JOINT RightForeArm
						{
							OFFSET -0.253742 -0.013329 -0.021401
							CHANNELS 3 Zrotation Yrotation Xrotation
							JOINT RightHand
							{
								OFFSET -0.255298 0.007772 -0.005559
								CHANNELS 3 Zrotation Yrotation Xrotation
								End Site
								{
									OFFSET 0.000000 0.000000 0.000000
								}
							}
						}
					}
				}
			}
		}
	}
}
MOTION
Frames: 7
Frame Time: 0.050000
0.000000 0.944159 0.000000 -5.415271 -13.018174 11.237039 6.298421 -0.216943 -21.364456 -0.804932 0.055098 8.532784 3.391736 8.374372 10.644469 0.000000 0.000000 0.000000 0.485419 1.652867 -14.659052 2.830165 0.080583 8.988112 -3.559440 -13.867432 13.793921 0.000000 0.000000 0.000000 -6.167338 2.834006 39.573158 -8.997718 2.355918 -25.246879 -4.528255 0.470179 26.225953 5.284322 -2.218852 -26.342606 0.000000 0.000000 0.000000 -15.594983 -23.244378 12.598256 -25.314384 -35.031335 1.492239 60.371059 -32.232489 -15.206737 0.000000 0.000000 0.000000 28.353601 7.530228 0.852798 58.291085 8.759985 -3.278812 7.567023 56.247446 6.479627 0.000000 0.000000 0.000000 
0.000454 0.945063 0.001876 -5.380868 -13.380270 11.413232 5.958881 -0.262162 -21.453113 -0.377457 -0.028030 8.658871 3.544183 8.615395 10.889246 0.000000 0.000000 0.000000 0.604370 1.546008 -13.823028 2.639822 0.018721 6.740138 -3.850260 -14.727922 15.149290 0.000000 0.000000 0.000000 -7.367823 3.375112 39.233139 -7.786258 2.128347 -24.122110 -4.469938 0.316244 25.946939 4.861411 -1.776773 -28.426644 0.000000 0.000000 0.000000 -15.704423 -23.177142 12.720259 -25.106627 -35.077938 1.433440 64.326583 -31.969610 -16.132261 0.000000 0.000000 0.000000 28.385640 6.424291 -0.062156 57.164891 9.063080 -2.981843 11.271554 56.257427 8.279450 0.000000 0.000000 0.000000 
0.000940 0.944322 0.003476 -5.046609 -11.668275 11.005409 5.602031 -0.424169 -22.182579 -0.442966 -0.040938 10.154024 2.773439 7.456612 10.378917 0.000000 0.000000 0.000000 0.442989 1.511374 -13.719356 2.789338 -0.013306 7.002480 -5.421400 -17.280947 16.523933 0.000000 0.000000 0.000000 -5.774849 2.438403 39.486147 -8.193366 2.261695 -23.553677 -5.271982 0.270543 25.120957 5.158385 -2.231375 -24.483111 0.000000 0.000000 0.000000 -17.919935 -24.661783 13.884345 -21.285722 -35.133555 0.739751 62.005808 -32.781095 -16.323146 0.000000 0.000000 0.000000 30.103530 6.344241 0.055667 55.028462 9.099196 -2.836067 13.266870 54.899383 9.175782 0.000000 0.000000 0.000000 
0.001107 0.945960 0.004840 -4.720968 -12.315399 10.895099 5.172560 -0.474506 -22.259278 -0.361887 -0.044833 10.706558 2.988753 7.838911 10.986442 0.000000 0.000000 0.000000 0.115647 1.421861 -13.145027 3.003751 -0.076146 5.721998 -5.912742 -18.250778 17.589783 0.000000 0.000000 0.000000 -6.124763 2.787274 40.340994 -8.872445 2.420115 -23.475704 -5.707296 -0.097467 25.388462 6.018386 -2.801860 -24.621441 0.000000 0.000000 0.000000 -16.820136 -25.555721 14.142965 -21.131694 -35.861322 0.880988 63.622910 -30.754566 -15.648042 0.000000 0.000000 0.000000 31.477980 6.523413 -0.184750 52.995803 9.713571 -2.431801 13.450057 55.229960 9.221237 0.000000 0.000000 0.000000 
0.001259 0.945704 0.005965 -4.425319 -12.398445 10.875076 4.773081 -0.548959 -22.553296 -0.259158 -0.064232 11.277415 3.033624 7.907391 10.965529 0.000000 0.000000 0.000000 -0.182130 1.408866 -13.157432 2.719698 -0.037633 5.839194 -5.578643 -17.713085 17.318160 0.000000 0.000000 0.000000 -5.810373 2.690607 40.535327 -8.679669 2.398232 -22.968928 -6.510791 -0.149431 24.791517 5.833128 -2.662013 -24.650239 0.000000 0.000000 0.000000 -16.214117 -25.796447 14.076828 -21.252569 -37.460160 1.214565 63.007496 -29.738064 -14.824391 0.000000 0.000000 0.000000 31.532638 6.628381 -0.141525 53.124794 10.232441 -2.151792 14.030614 54.496791 9.350215 0.000000 0.000000 0.000000 
0.001321 0.945673 0.006545 -4.225863 -12.177670 10.969869 4.439187 -0.632947 -22.859402 -0.054417 -0.116562 11.538526 2.930613 7.768802 10.994287 0.000000 0.000000 0.000000 -0.452224 1.373713 -12.995703 2.921916 -0.073511 5.571679 -5.721392 -17.820305 16.868234 0.000000 0.000000 0.000000 -5.633934 2.664308 41.294950 -8.927124 2.414949 -24.093433 -6.427859 -0.547717 25.626430 5.532147 -2.542506 -24.814852 0.000000 0.000000 0.000000 -15.438201 -26.493437 14.303117 -22.161135 -38.333494 1.540974 64.076955 -29.655103 -14.959171 0.000000 0.000000 0.000000 31.374855 6.495277 -0.334791 53.003723 10.978055 -1.881160 14.482863 52.622120 9.165569 0.000000 0.000000 0.000000 
0.001407 0.945720 0.006567 -4.078297 -12.092168 11.316210 4.530940 -0.620059 -23.376970 -0.474748 -0.020221 11.675352 2.876048 7.709209 11.150018 0.000000 0.000000 0.000000 -0.690214 1.393869 -13.257436 3.028099 -0.096356 5.246614 -5.785463 -17.950156 17.088090 0.000000 0.000000 0.000000 -5.131436 2.452426 41.417070 -9.088752 2.465229 -23.815322 -6.775222 -0.771934 25.352713 5.650670 -2.552655 -25.367318 0.000000 0.000000 0.000000 -15.394428 -26.285807 14.238442 -23.067849 -39.695513 1.990463 65.094880 -30.355419 -15.521482 0.000000 0.000000 0.000000 31.116726 6.645630 -0.294429 53.394745 11.623766 -1.559894 14.186580 51.567807 8.774330 0.000000 0.000000 0.000000 
